# xmcd
#
# Track frame offsets:
#	150
#	17874
#	36344
#	52087
#	72830
#	84810
#	103634
#	117075
#	135496
#	149948
#	167162
#	183127
#
# Disc length: 2681 seconds
#
# Revision: 0
# Processed by: cddbd v1.5PL3 Copyright (c) Steve Scherf et al.
# Submitted via: dBpowerAMP V4.0
#
DISCID=a60a770c
DTITLE=Léo Jr. - O Tempo Não Desfaz
DYEAR=1900
DGENRE=Country
TTITLE0=Reggae Sertanejo
TTITLE1=Coração De Mulher
TTITLE2=Grudado Nela
TTITLE3=O Tempo Não Desfaz
TTITLE4=Doidinho Pra Te Namorar
TTITLE5=Vou Tentar Outra Paixão
TTITLE6=Fera No Cio
TTITLE7=Que Louco Fui Eu
TTITLE8=Porre De Paixão
TTITLE9=Na Boca Do Povo
TTITLE10=Queimando Coração
TTITLE11=Tem Que Ter Mulher
EXTD=
EXTT0=
EXTT1=
EXTT2=
EXTT3=
EXTT4=
EXTT5=
EXTT6=
EXTT7=
EXTT8=
EXTT9=
EXTT10=
EXTT11=
PLAYORDER=
